<?xml version="1.0" encoding="UTF-8" standalone="no"?>
<!DOCTYPE svg PUBLIC "-//W3C//DTD SVG 1.1//EN"
 "http://www.w3.org/Graphics/SVG/1.1/DTD/svg11.dtd">
<!-- Generated by graphviz version 2.38.0 (20140413.2041)
 -->
<!-- Title: Família do Alan Pages: 1 -->
<svg width="300pt" height="188pt"
 viewBox="0.00 0.00 300.34 188.00" xmlns="http://www.w3.org/2000/svg" xmlns:xlink="http://www.w3.org/1999/xlink">
<g id="graph0" class="graph" transform="scale(1 1) rotate(0) translate(4 184)">
<title>Família do Alan</title>
<polygon fill="white" stroke="none" points="-4,4 -4,-184 296.342,-184 296.342,4 -4,4"/>
<!-- Nilson -->
<g id="node1" class="node"><title>Nilson</title>
<ellipse fill="none" stroke="black" cx="82.3968" cy="-18" rx="34.394" ry="18"/>
<text text-anchor="middle" x="82.3968" y="-14.3" font-family="Times,serif" font-size="14.00">Nilson</text>
</g>
<!-- Cássia -->
<g id="node2" class="node"><title>Cássia</title>
<ellipse fill="none" stroke="black" cx="168.397" cy="-18" rx="33.5952" ry="18"/>
<text text-anchor="middle" x="168.397" y="-14.3" font-family="Times,serif" font-size="14.00">Cássia</text>
</g>
<!-- Aline -->
<g id="node3" class="node"><title>Aline</title>
<ellipse fill="none" stroke="black" cx="36.3968" cy="-90" rx="30.5947" ry="18"/>
<text text-anchor="middle" x="36.3968" y="-86.3" font-family="Times,serif" font-size="14.00">Aline</text>
</g>
<!-- Aline&#45;&gt;Nilson -->
<g id="edge2" class="edge"><title>Aline&#45;&gt;Nilson</title>
<path fill="none" stroke="black" d="M47.0657,-72.7646C52.7554,-64.1064 59.8744,-53.2731 66.2284,-43.604"/>
<polygon fill="black" stroke="black" points="69.2188,-45.4265 71.7857,-35.1473 63.3689,-41.5822 69.2188,-45.4265"/>
</g>
<!-- Aline&#45;&gt;Cássia -->
<g id="edge5" class="edge"><title>Aline&#45;&gt;Cássia</title>
<path fill="none" stroke="black" d="M58.4906,-77.2836C79.7424,-66.0137 112.11,-48.8493 136.222,-36.0623"/>
<polygon fill="black" stroke="black" points="138.148,-39.0028 145.343,-31.2256 134.868,-32.8185 138.148,-39.0028"/>
</g>
<!-- Amanda -->
<g id="node4" class="node"><title>Amanda</title>
<ellipse fill="none" stroke="black" cx="125.397" cy="-90" rx="40.8928" ry="18"/>
<text text-anchor="middle" x="125.397" y="-86.3" font-family="Times,serif" font-size="14.00">Amanda</text>
</g>
<!-- Amanda&#45;&gt;Nilson -->
<g id="edge4" class="edge"><title>Amanda&#45;&gt;Nilson</title>
<path fill="none" stroke="black" d="M115.206,-72.411C110.012,-63.9549 103.586,-53.4944 97.802,-44.0783"/>
<polygon fill="black" stroke="black" points="100.731,-42.1587 92.514,-35.4699 94.766,-45.8227 100.731,-42.1587"/>
</g>
<!-- Amanda&#45;&gt;Cássia -->
<g id="edge7" class="edge"><title>Amanda&#45;&gt;Cássia</title>
<path fill="none" stroke="black" d="M135.587,-72.411C140.782,-63.9549 147.207,-53.4944 152.992,-44.0783"/>
<polygon fill="black" stroke="black" points="156.028,-45.8227 158.28,-35.4699 150.063,-42.1587 156.028,-45.8227"/>
</g>
<!-- Alan Godoy -->
<g id="node5" class="node"><title>Alan Godoy</title>
<ellipse fill="none" stroke="black" cx="238.397" cy="-90" rx="53.8905" ry="18"/>
<text text-anchor="middle" x="238.397" y="-86.3" font-family="Times,serif" font-size="14.00">Alan Godoy</text>
</g>
<!-- Alan Godoy&#45;&gt;Nilson -->
<g id="edge3" class="edge"><title>Alan Godoy&#45;&gt;Nilson</title>
<path fill="none" stroke="black" d="M207.576,-75.1703C181.523,-63.4798 144.221,-46.7418 117.119,-34.5805"/>
<polygon fill="black" stroke="black" points="118.55,-31.3863 107.993,-30.4856 115.684,-37.7728 118.55,-31.3863"/>
</g>
<!-- Alan Godoy&#45;&gt;Cássia -->
<g id="edge6" class="edge"><title>Alan Godoy&#45;&gt;Cássia</title>
<path fill="none" stroke="black" d="M222.161,-72.7646C212.801,-63.4047 200.9,-51.5028 190.674,-41.2777"/>
<polygon fill="black" stroke="black" points="193.132,-38.7852 183.586,-34.189 188.182,-43.7349 193.132,-38.7852"/>
</g>
<!-- Beatriz -->
<g id="node6" class="node"><title>Beatriz</title>
<ellipse fill="none" stroke="black" cx="36.3968" cy="-162" rx="36.2938" ry="18"/>
<text text-anchor="middle" x="36.3968" y="-158.3" font-family="Times,serif" font-size="14.00">Beatriz</text>
</g>
<!-- Beatriz&#45;&gt;Aline -->
<g id="edge1" class="edge"><title>Beatriz&#45;&gt;Aline</title>
<path fill="none" stroke="black" d="M36.3968,-143.697C36.3968,-135.983 36.3968,-126.712 36.3968,-118.112"/>
<polygon fill="black" stroke="black" points="39.8969,-118.104 36.3968,-108.104 32.8969,-118.104 39.8969,-118.104"/>
</g>
</g>
</svg>
